<svg width="155" height="146" viewBox="0 0 155 146" fill="none" xmlns="http://www.w3.org/2000/svg">
<path d="M27.7082 11.6835C29.0866 6.33545 34.5396 3.11746 39.8876 4.49591L136.723 29.455C142.071 30.8335 145.289 36.2864 143.91 41.6344L120.698 131.691C119.32 137.039 113.867 140.257 108.519 138.879L11.6838 113.92C6.33578 112.541 3.11778 107.088 4.49623 101.74L27.7082 11.6835Z" fill="white"/>
<path d="M25.5369 10.0912C27.26 3.40611 34.0761 -0.616386 40.7612 1.10668L143.891 27.6881C151.11 29.549 155.455 36.9105 153.594 44.1303L134.227 39.1385C135.123 35.6623 135.849 32.8442 135.849 32.8442L39.014 7.88514C35.003 6.8513 31.0251 8.83125 30.1291 12.3075L25.5369 10.0912ZM130.382 134.187C128.245 142.477 119.793 147.464 111.504 145.328L10.3111 119.246C3.62602 117.522 -0.396483 110.706 1.32658 104.021L6.91711 102.364C6.29681 104.771 9.04555 107.56 13.0566 108.594L109.892 133.553C109.892 133.553 110.395 131.602 111.015 129.195L130.382 134.187ZM10.3111 119.246C3.62602 117.522 -0.396483 110.706 1.32658 104.021L25.5369 10.0912C27.26 3.40611 34.0761 -0.616386 40.7612 1.10668L39.014 7.88514C35.003 6.8513 31.0251 8.83125 30.1291 12.3075L6.91711 102.364C6.29681 104.771 9.04555 107.56 13.0566 108.594L10.3111 119.246ZM143.891 27.6881C151.11 29.549 155.455 36.9105 153.594 44.1303L130.382 134.187C128.245 142.477 119.793 147.464 111.504 145.328L109.892 133.553C109.892 133.553 110.395 131.602 111.015 129.195L134.227 39.1385C135.123 35.6623 135.849 32.8442 135.849 32.8442L143.891 27.6881Z" fill="#E3E3E3"/>
<rect x="30.8584" y="3.78394" width="114.007" height="108.376" rx="6" transform="rotate(14.4551 30.8584 3.78394)" fill="white"/>
<path d="M99.8225 53.2198C99.8448 52.8812 99.6244 52.6001 99.3529 52.5362C99.0813 52.4724 94.3282 51.2396 94.3282 51.2396C94.3282 51.2396 91.2294 46.3845 90.9387 45.915C90.648 45.4454 89.8079 45.3624 89.5109 45.4072C89.5109 45.4072 88.6995 45.4455 87.3611 45.5319C87.31 44.7748 87.1758 43.8836 86.9457 42.9126C86.1725 39.8653 84.3996 37.9009 81.9016 37.3133C81.7387 37.2749 81.5758 37.2366 81.3458 37.2398C81.3171 37.1185 81.2212 37.0386 81.1925 36.9172C80.3874 35.4671 79.1033 34.5919 77.4071 34.2502C74.1233 33.5924 70.3158 35.161 66.7257 38.7292C64.1895 41.2273 61.909 44.5878 60.7976 47.3637C56.7824 47.6227 53.9842 47.8241 53.9171 47.8656C51.876 48.0158 51.8089 48.0574 51.1701 49.7983C50.6879 51.1176 36.6862 88.2264 36.6862 88.2264L76.488 105.154L95.5099 104.929C95.4684 104.862 99.8001 53.5584 99.8225 53.2198ZM85.1443 45.6981C84.103 45.7397 82.9275 45.8643 81.7105 45.9219C82.0937 44.2928 82.4257 41.9066 82.1254 39.7729C84.4541 40.8364 84.9973 43.8869 85.1443 45.6981ZM79.3179 46.1041C76.9925 46.2448 74.4243 46.443 71.8689 46.5868C73.1209 44.1879 75.0246 41.9422 76.9411 40.6164C77.6789 40.1596 78.6596 39.6453 79.6849 39.428C80.2153 41.5586 79.8066 44.2705 79.3179 46.1041ZM76.9504 36.4351C77.7107 36.614 78.324 36.9302 78.7904 37.3837C77.8066 37.6681 76.7844 38.1153 75.7655 38.7926C73.1782 40.5336 70.7859 43.6386 69.355 46.7978C67.2596 46.9353 65.1641 47.0728 63.2444 47.1943C65.611 42.2494 71.8619 35.41 76.9504 36.4351Z" fill="#95BF47"/>
<path d="M99.3523 52.5364C99.0808 52.4725 94.3276 51.2398 94.3276 51.2398C94.3276 51.2398 91.2289 46.3847 90.9381 45.9151C90.8136 45.7139 90.6634 45.6213 90.459 45.5159L76.4459 105.087L95.4678 104.862C95.4678 104.862 99.7995 53.5585 99.8346 53.1656C99.8442 52.8814 99.6238 52.6003 99.3523 52.5364Z" fill="#5E8E3E"/>
<path d="M77.1961 57.0672L73.2931 64.4015C73.2931 64.4015 71.2135 62.7662 68.3929 62.3319C64.2563 61.6454 63.6559 64.1977 63.5026 64.8493C62.9023 68.3758 71.9008 71.2949 70.5149 79.6225C69.3749 86.174 64.539 89.6784 58.9777 88.7141C52.2504 87.5901 49.5318 82.8243 49.5318 82.8243L52.3489 77.1831C52.3489 77.1831 55.3357 80.8084 58.3192 81.281C60.2454 81.6195 61.3218 80.2107 61.523 79.1119C62.3245 74.4865 54.7667 72.9952 56.0408 65.3864C57.1425 58.9977 62.7769 53.5607 72.0276 55.1637C75.6212 55.7225 77.1961 57.0672 77.1961 57.0672Z" fill="white"/>
</svg>
