<svg width="154" height="146" viewBox="0 0 154 146" fill="none" xmlns="http://www.w3.org/2000/svg">
<path d="M27.5051 11.4963C28.8835 6.1482 34.3364 2.9302 39.6845 4.30865L136.52 29.2677C141.868 30.6462 145.086 36.0991 143.707 41.4472L120.495 131.504C119.117 136.852 113.664 140.07 108.316 138.691L11.4807 113.732C6.13265 112.354 2.91466 106.901 4.29311 101.553L27.5051 11.4963Z" fill="white"/>
<path d="M25.3338 9.90393C27.0568 3.21886 33.873 -0.803642 40.5581 0.919424L143.687 27.5009C150.907 29.3618 155.252 36.7232 153.391 43.9431L134.024 38.9513C134.92 35.475 135.646 32.657 135.646 32.657L38.8109 7.69788C34.7999 6.66404 30.8219 8.644 29.9259 12.1202L25.3338 9.90393ZM130.179 134C128.042 142.289 119.59 147.277 111.301 145.141L10.108 119.058C3.42289 117.335 -0.599608 110.519 1.12346 103.834L6.71399 102.177C6.09368 104.584 8.84242 107.373 12.8535 108.406L109.689 133.366C109.689 133.366 110.191 131.415 110.812 129.008L130.179 134ZM10.108 119.058C3.42289 117.335 -0.599608 110.519 1.12346 103.834L25.3338 9.90393C27.0568 3.21886 33.873 -0.803642 40.5581 0.919424L38.8109 7.69788C34.7999 6.66404 30.8219 8.644 29.9259 12.1202L6.71399 102.177C6.09368 104.584 8.84242 107.373 12.8535 108.406L10.108 119.058ZM143.687 27.5009C150.907 29.3618 155.252 36.7232 153.391 43.9431L130.179 134C128.042 142.289 119.59 147.277 111.301 145.141L109.689 133.366C109.689 133.366 110.191 131.415 110.812 129.008L134.024 38.9513C134.92 35.475 135.646 32.657 135.646 32.657L143.687 27.5009Z" fill="#E3E3E3"/>
<rect x="30.6553" y="3.59668" width="114.007" height="108.376" rx="6" transform="rotate(14.4551 30.6553 3.59668)" fill="white"/>
<g clip-path="url(#clip0_838_493)">
<path d="M33.5958 95.4062L41.6442 80.6258C40.0631 75.3737 39.8946 69.7964 41.1616 64.4231C45.1285 47.6134 62.03 37.1577 78.8432 41.117C87.0016 43.0416 93.9101 48.0205 98.3123 55.1391C102.712 62.2589 104.08 70.6653 102.158 78.8125C98.1926 95.6225 81.2875 106.079 64.4775 102.121L64.4647 102.118C59.3614 100.914 54.6459 98.4523 50.7636 94.9727L33.5958 95.4062Z" fill="white"/>
<path d="M33.4068 96.2089C33.1947 96.159 33.0088 96.027 32.8925 95.8369C32.7397 95.5856 32.731 95.2698 32.8712 95.0129L40.7559 80.5314C39.2271 75.2442 39.0891 69.6164 40.3597 64.2355C44.4298 46.9804 61.7775 36.25 79.0324 40.3133C87.4013 42.2875 94.4973 47.3987 99.0146 54.7055C103.531 62.0139 104.933 70.6419 102.961 79.0012C98.8915 96.2546 81.5418 106.986 64.2885 102.923C59.1659 101.715 54.3952 99.2575 50.4604 95.8063L33.6172 96.2297C33.5452 96.2331 33.4759 96.2252 33.4068 96.2089Z" fill="white"/>
<path d="M78.8435 41.117C87.0019 43.0416 93.9104 48.0206 98.3126 55.1392C102.713 62.259 104.08 70.6653 102.158 78.8125C98.1929 95.6226 81.2878 106.079 64.4778 102.121L64.465 102.118C59.3617 100.914 54.6462 98.4524 50.7639 94.9728L33.5961 95.4062L41.6445 80.6259C40.0634 75.3737 39.8949 69.7964 41.1619 64.4232C45.1288 47.6135 62.0303 37.1577 78.8435 41.117ZM79.2218 39.5106C61.525 35.3432 43.7312 46.3484 39.5554 64.0449C38.2801 69.4534 38.3904 75.1052 39.8689 80.4332L32.1454 94.6187C31.8639 95.1373 31.8789 95.7648 32.1876 96.2682C32.4202 96.6485 32.7934 96.9144 33.2175 97.0143C33.354 97.0464 33.4947 97.0609 33.638 97.0574L50.1606 96.6416C54.1483 100.07 58.9476 102.514 64.0863 103.726C81.7959 107.896 99.5901 96.8893 103.766 79.1928C105.789 70.6167 104.351 61.7665 99.7186 54.2732C95.0831 46.7775 87.8043 41.5351 79.2218 39.5106Z" fill="#CFD8DC"/>
<path d="M93.8127 57.9211C90.1535 52.0033 84.4119 47.8654 77.6395 46.2689C63.6569 42.9761 49.6079 51.6654 46.311 65.6369C45.1817 70.4254 45.4236 75.4028 47.0112 80.0375L47.3893 81.1388L42.6249 89.8866L52.8127 89.6305L53.6103 90.3982C56.9571 93.6245 61.1324 95.8964 65.6815 96.9693L65.6911 96.9716C79.6641 100.262 93.7134 91.5712 97.0091 77.5977C98.6052 70.8269 97.4718 63.8389 93.8127 57.9211Z" fill="#40C351"/>
<path fill-rule="evenodd" clip-rule="evenodd" d="M67.0396 57.0648C66.7682 55.6614 66.1734 55.4942 65.6341 55.3435C65.1937 55.2194 64.6857 55.1015 64.178 54.9819C63.6704 54.8624 62.7996 54.8591 61.9211 55.4576C61.0426 56.0561 58.6392 57.4349 57.7563 61.1844C56.8733 64.9339 58.7508 69.2012 59.012 69.7985C59.2732 70.3958 62.2949 79.4884 69.3217 84.3681C75.1611 88.4221 76.5907 88.2264 78.0183 88.4286C79.4458 88.6308 82.9615 87.6479 84.0152 86.0174C85.0689 84.3868 85.4279 82.8623 85.3133 82.4996C85.197 82.1365 84.734 81.8274 84.0626 81.2657C83.3911 80.7041 80.0772 77.9789 79.4382 77.5605C78.7991 77.1421 78.3214 76.8957 77.6324 77.5388C76.9455 78.1807 75.0808 79.5542 74.5163 79.957C73.9513 80.3615 73.4912 80.3209 72.8198 79.7593C72.1484 79.1976 69.8829 77.8164 67.5817 74.5345C65.7921 71.9818 64.8503 69.1268 64.585 68.2589C64.3193 67.3927 64.8133 67.0733 65.2853 66.7826C65.7081 66.521 66.2563 66.0719 66.7435 65.7169C67.229 65.3616 67.4308 65.0734 67.8042 64.6256C68.1779 64.1761 68.1558 63.7012 68.0543 63.2755C67.9564 62.8489 67.3627 58.7313 67.0396 57.0648Z" fill="white"/>
</g>
<defs>
<clipPath id="clip0_838_493">
<rect width="79.2192" height="79.2192" fill="white" transform="translate(42.1582 24) rotate(13.2511)"/>
</clipPath>
</defs>
</svg>
